<?xml version="1.0" encoding="UTF-8" standalone="no"?>
<svg
   xmlns:dc="http://purl.org/dc/elements/1.1/"
   xmlns:cc="http://creativecommons.org/ns#"
   xmlns:rdf="http://www.w3.org/1999/02/22-rdf-syntax-ns#"
   xmlns:svg="http://www.w3.org/2000/svg"
   xmlns="http://www.w3.org/2000/svg"
   viewBox="0 0 420 293.33334"
   height="293.33334"
   width="420"
   xml:space="preserve"
   id="svg2"
   version="1.1"><metadata
     id="metadata8"><rdf:RDF><cc:Work
         rdf:about=""><dc:format>image/svg+xml</dc:format><dc:type
           rdf:resource="http://purl.org/dc/dcmitype/StillImage" /></cc:Work></rdf:RDF></metadata><defs
     id="defs6" /><g
     transform="matrix(1.3333333,0,0,1.3333333,0,4e-6)"
     id="g10"><g
       id="g12"><path
         id="path14"
         style="fill:#ffffff;fill-opacity:1;fill-rule:nonzero;stroke:none"
         d="M 0,0 H 236.25 V 165 H 0 Z M 0,0 H 315 V 220.5 H 0 Z" /><path
         id="path16"
         style="fill:#ffffff;fill-opacity:1;fill-rule:nonzero;stroke:none"
         d="M 32.25,12 H 303 V 192.75 H 32.25 Z" /><g
         id="g18"><path
           id="path20"
           style="fill:none;stroke:#000000;stroke-width:0.75;stroke-linecap:butt;stroke-linejoin:miter;stroke-miterlimit:1.15470099;stroke-dasharray:none;stroke-opacity:0.12000002"
           d="M 44.559,192.75 V 12" /></g><g
         id="g22"><path
           id="path24"
           style="fill:none;stroke:#000000;stroke-width:0.75;stroke-linecap:butt;stroke-linejoin:miter;stroke-miterlimit:1.15470099;stroke-dasharray:none;stroke-opacity:0.12000002"
           d="M 106.09,192.75 V 12" /></g><g
         id="g26"><path
           id="path28"
           style="fill:none;stroke:#000000;stroke-width:0.75;stroke-linecap:butt;stroke-linejoin:miter;stroke-miterlimit:1.15470099;stroke-dasharray:none;stroke-opacity:0.12000002"
           d="M 167.625,192.75 V 12" /></g><g
         id="g30"><path
           id="path32"
           style="fill:none;stroke:#000000;stroke-width:0.75;stroke-linecap:butt;stroke-linejoin:miter;stroke-miterlimit:1.15470099;stroke-dasharray:none;stroke-opacity:0.12000002"
           d="M 229.16,192.75 V 12" /></g><g
         id="g34"><path
           id="path36"
           style="fill:none;stroke:#000000;stroke-width:0.75;stroke-linecap:butt;stroke-linejoin:miter;stroke-miterlimit:1.15470099;stroke-dasharray:none;stroke-opacity:0.12000002"
           d="M 290.691,192.75 V 12" /></g><g
         id="g38"><path
           id="path40"
           style="fill:none;stroke:#000000;stroke-width:0.75;stroke-linecap:butt;stroke-linejoin:miter;stroke-miterlimit:1.15470099;stroke-dasharray:none;stroke-opacity:0.12000002"
           d="M 32.25,167.316 H 303" /></g><g
         id="g42"><path
           id="path44"
           style="fill:none;stroke:#000000;stroke-width:0.75;stroke-linecap:butt;stroke-linejoin:miter;stroke-miterlimit:1.15470099;stroke-dasharray:none;stroke-opacity:0.12000002"
           d="M 32.25,89.863 H 303" /></g><g
         id="g46"><path
           id="path48"
           style="fill:none;stroke:#000000;stroke-width:0.75;stroke-linecap:butt;stroke-linejoin:miter;stroke-miterlimit:1.15470099;stroke-dasharray:none;stroke-opacity:0.12000002"
           d="M 32.25,12.414 H 303" /></g><text
         id="text52"
         style="font-variant:normal;font-weight:normal;font-size:10.5px;font-family:'NewComputerModern Math';-inkscape-font-specification:NewCMMath-Regular;writing-mode:lr-tb;fill:#000000;fill-opacity:1;fill-rule:nonzero;stroke:none"
         transform="translate(37.847317,207.213)"><tspan
           id="tspan50"
           y="0"
           x="0">0</tspan></text>
<text
         id="text56"
         style="font-variant:normal;font-weight:normal;font-size:10.5px;font-family:'NewComputerModern Math';-inkscape-font-specification:NewCMMath-Regular;writing-mode:lr-tb;fill:#000000;fill-opacity:1;fill-rule:nonzero;stroke:none"
         transform="translate(43.09732,207.213)"><tspan
           id="tspan54"
           y="0"
           x="0">.</tspan></text>
<text
         id="text60"
         style="font-variant:normal;font-weight:normal;font-size:10.5px;font-family:'NewComputerModern Math';-inkscape-font-specification:NewCMMath-Regular;writing-mode:lr-tb;fill:#000000;fill-opacity:1;fill-rule:nonzero;stroke:none"
         transform="translate(46.016321,207.213)"><tspan
           id="tspan58"
           y="0"
           x="0 53.361">00</tspan></text>
<text
         id="text64"
         style="font-variant:normal;font-weight:normal;font-size:10.5px;font-family:'NewComputerModern Math';-inkscape-font-specification:NewCMMath-Regular;writing-mode:lr-tb;fill:#000000;fill-opacity:1;fill-rule:nonzero;stroke:none"
         transform="matrix(0.99999895,0,0,1,104.63141,207.213)"><tspan
           id="tspan62"
           y="0"
           x="0 2.9189999">.5</tspan></text>
<text
         id="text68"
         style="font-variant:normal;font-weight:normal;font-size:10.50001144px;font-family:'NewComputerModern Math';-inkscape-font-specification:NewCMMath-Regular;writing-mode:lr-tb;fill:#000000;fill-opacity:1;fill-rule:nonzero;stroke:none"
         transform="matrix(1,0,0,0.99999895,160.9155,207.213)"><tspan
           id="tspan66"
           y="0"
           x="0">1</tspan></text>
<text
         id="text72"
         style="font-variant:normal;font-weight:normal;font-size:10.5px;font-family:'NewComputerModern Math';-inkscape-font-specification:NewCMMath-Regular;writing-mode:lr-tb;fill:#000000;fill-opacity:1;fill-rule:nonzero;stroke:none"
         transform="translate(166.1655,207.213)"><tspan
           id="tspan70"
           y="0"
           x="0">.</tspan></text>
<text
         id="text76"
         style="font-variant:normal;font-weight:normal;font-size:10.50001144px;font-family:'NewComputerModern Math';-inkscape-font-specification:NewCMMath-Regular;writing-mode:lr-tb;fill:#000000;fill-opacity:1;fill-rule:nonzero;stroke:none"
         transform="matrix(1,0,0,0.99999895,169.0845,207.213)"><tspan
           id="tspan74"
           y="0"
           x="0">0</tspan></text>
<text
         id="text80"
         style="font-variant:normal;font-weight:normal;font-size:10.5px;font-family:'NewComputerModern Math';-inkscape-font-specification:NewCMMath-Regular;writing-mode:lr-tb;fill:#000000;fill-opacity:1;fill-rule:nonzero;stroke:none"
         transform="matrix(0.99999781,0,0,1,222.44959,207.213)"><tspan
           id="tspan78"
           y="0"
           x="0">1</tspan></text>
<text
         id="text84"
         style="font-variant:normal;font-weight:normal;font-size:10.5px;font-family:'NewComputerModern Math';-inkscape-font-specification:NewCMMath-Regular;writing-mode:lr-tb;fill:#000000;fill-opacity:1;fill-rule:nonzero;stroke:none"
         transform="translate(227.69957,207.213)"><tspan
           id="tspan82"
           y="0"
           x="0 2.9189999">.5</tspan></text>
<text
         id="text88"
         style="font-variant:normal;font-weight:normal;font-size:10.5px;font-family:'NewComputerModern Math';-inkscape-font-specification:NewCMMath-Regular;writing-mode:lr-tb;fill:#000000;fill-opacity:1;fill-rule:nonzero;stroke:none"
         transform="matrix(0.99999781,0,0,1,283.9837,207.213)"><tspan
           id="tspan86"
           y="0"
           x="0">2</tspan></text>
<text
         id="text92"
         style="font-variant:normal;font-weight:normal;font-size:10.5px;font-family:'NewComputerModern Math';-inkscape-font-specification:NewCMMath-Regular;writing-mode:lr-tb;fill:#000000;fill-opacity:1;fill-rule:nonzero;stroke:none"
         transform="translate(289.23367,207.213)"><tspan
           id="tspan90"
           y="0"
           x="0 2.9189999">.0</tspan></text>
<text
         id="text96"
         style="font-variant:normal;font-weight:normal;font-size:10.50001144px;font-family:'NewComputerModern Math';-inkscape-font-specification:NewCMMath-Regular;writing-mode:lr-tb;fill:#000000;fill-opacity:1;fill-rule:nonzero;stroke:none"
         transform="matrix(0.99999895,0,0,1,11.331001,170.52985)"><tspan
           id="tspan94"
           y="0"
           x="0">0</tspan></text>
<text
         id="text100"
         style="font-variant:normal;font-weight:normal;font-size:10.50001144px;font-family:'NewComputerModern Math';-inkscape-font-specification:NewCMMath-Regular;writing-mode:lr-tb;fill:#000000;fill-opacity:1;fill-rule:nonzero;stroke:none"
         transform="matrix(0.99999886,0,0,1,16.580997,170.52985)"><tspan
           id="tspan98"
           y="0"
           x="0 2.919003">.0</tspan></text>
<text
         id="text104"
         style="font-variant:normal;font-weight:normal;font-size:10.5px;font-family:'NewComputerModern Math';-inkscape-font-specification:NewCMMath-Regular;writing-mode:lr-tb;fill:#000000;fill-opacity:1;fill-rule:nonzero;stroke:none"
         transform="translate(11.331001,93.078163)"><tspan
           id="tspan102"
           y="0"
           x="0">0</tspan></text>
<text
         id="text108"
         style="font-variant:normal;font-weight:normal;font-size:10.5px;font-family:'NewComputerModern Math';-inkscape-font-specification:NewCMMath-Regular;writing-mode:lr-tb;fill:#000000;fill-opacity:1;fill-rule:nonzero;stroke:none"
         transform="translate(16.580997,93.078163)"><tspan
           id="tspan106"
           y="0"
           x="0 2.9189999">.5</tspan></text>
<text
         id="text112"
         style="font-variant:normal;font-weight:normal;font-size:10.5px;font-family:'NewComputerModern Math';-inkscape-font-specification:NewCMMath-Regular;writing-mode:lr-tb;fill:#000000;fill-opacity:1;fill-rule:nonzero;stroke:none"
         transform="translate(11.331001,15.626477)"><tspan
           id="tspan110"
           y="0"
           x="0">1</tspan></text>
<text
         id="text116"
         style="font-variant:normal;font-weight:normal;font-size:10.49999905px;font-family:'NewComputerModern Math';-inkscape-font-specification:NewCMMath-Regular;writing-mode:lr-tb;fill:#000000;fill-opacity:1;fill-rule:nonzero;stroke:none"
         transform="translate(16.580997,15.626477)"><tspan
           id="tspan114"
           y="0"
           x="0 2.9189997">.0</tspan></text>
<g
         id="g118"><path
           id="path120"
           style="fill:none;stroke:#000000;stroke-width:1.125;stroke-linecap:butt;stroke-linejoin:miter;stroke-miterlimit:2;stroke-dasharray:none;stroke-opacity:1"
           d="m 44.559,167.316 0.246,8.805 0.246,-5.523 0.246,-6.481 0.246,2.793 0.246,-1.609 0.246,0.863 0.246,-8.074 0.246,4.422 0.246,0.054 0.247,1.418 0.246,5.02 0.246,7.539 0.246,-5.703 0.246,-8.953 0.246,3.23 0.246,-4.078 0.246,0.621 0.246,-1.648 0.246,8.426 0.246,2.839 0.247,-5.132 0.246,-2.817 0.246,-7.336 0.246,8.602 0.246,-10.137 0.246,3.305 0.246,-6.856 0.246,4.012 0.246,-20.52 0.246,-0.519 0.247,-0.969 0.246,-1.828 0.246,-0.441 0.246,8.023 0.246,7.313 0.246,7.375 0.246,-1.997 0.246,5.711 0.246,11.715 0.246,-1.82 0.246,3.449 0.247,-5.519 0.246,-5.7 0.246,-5.07 0.246,5.774 0.246,-0.434 0.246,3.887 0.246,-8.231 0.246,-7.422 0.246,-4.668 0.246,-3.211 0.246,5.055 0.247,-0.516 0.246,1.922 0.246,5.707 0.246,-7.757 0.246,-0.274 0.246,7.922 0.246,-7.988 0.246,13.23 0.246,6.363 0.246,-2.035 0.246,-11.808 0.247,-4.739 0.246,8.145 0.246,4.566 0.246,3.172 0.246,5.395 0.246,-1.555 0.246,4.277 0.246,1.68 0.246,-2.207 0.246,12.781 0.247,-10.246 0.246,11.926 0.246,1.703 0.246,-9.976 0.246,1.828 0.246,4.008 0.246,-11.497 0.246,-3.468 0.246,2.027 0.246,-5.449 0.246,-3.145 0.247,-15.59 0.246,-9.757 0.246,5.605 0.25,10.926 0.246,6.656 0.246,13.82 0.246,4.536 0.246,-7.77 0.246,2.352 0.246,-10.504 0.246,-5.246 0.247,-5.051 0.246,1.984 0.246,-3.469 0.246,1.551 0.246,-2.086 0.246,6.774 0.246,9.289 0.246,1.125 0.246,1.902 0.246,1.07 0.246,0.989 0.247,8.996 0.246,-5.367 0.246,-5.571 0.246,12.078 0.246,-6.414 0.246,-2.875 0.246,-5.378 0.246,-7.333 0.246,5.254 0.246,2.219 0.246,-4.785 0.247,13.395 0.246,2.21 0.246,-13.023 0.246,6.637 0.246,6.515 0.246,-3.812 0.246,2.125 0.246,-7.176 0.246,0.359 0.246,-3.562 0.246,1.301 0.247,-8.11 0.246,-6.859 0.246,-4.281 0.246,-12.387 0.246,2.117 0.246,-1.898 0.246,1.812 0.246,12.93 0.246,-11.664 0.246,-1.465 0.247,-12.895 0.246,9.047 0.246,-3.062 0.246,7.941 0.246,-7.043 0.246,1.676 0.246,-4.336 0.246,-2.461 0.246,-0.738 0.246,-11.586 0.246,6.43 0.247,12.527 0.246,-2.492 0.246,9.129 0.246,5.519 0.246,-1.187 0.246,-1.731 0.246,-8.5 0.246,-5.047 0.246,-2.105 0.246,-4.445 0.247,3.246 0.246,7.015 0.246,-0.754 0.246,4.094 0.246,6.676 0.246,-5.484 0.246,16.496 0.246,0.215 0.246,6.644 0.246,1.672 0.246,4.523 0.247,-5.73 0.246,2.75 0.246,0.707 0.246,-9.922 0.246,-12.449 0.246,-2.875 0.246,-14.391 0.246,2.481 0.246,-12.02 0.25,-1.273 0.246,-6.028 0.246,-7.632 0.247,-12.516 0.246,4.973 0.246,-0.532 0.246,5.817 0.246,12.234 0.246,7.871 0.246,-8.23 0.246,14.445 0.246,1.43 0.246,-2.707 0.246,-6.02 0.247,8.207 0.246,10.969 0.246,-3.047 0.246,0.746 0.246,-0.164 0.246,-14.851 0.246,4.269 0.246,7.695 0.246,-2.843 0.246,3.379 0.247,-9.739 0.246,10.606 0.246,-11.375 0.246,2.347 0.246,-4.757 0.246,-11.797 0.246,9.515 0.246,-6.5 0.246,-2.172 0.246,4.047 0.246,5.684 0.247,4.535 0.246,-1.379 0.246,-0.777 0.246,7.433 0.246,8.036 0.246,10.039 0.246,-9.637 0.246,2.039 0.246,-2.25 0.246,4.336 0.247,-2.773 0.246,6.253 0.246,3.262 0.246,-4.488 0.246,-3.567 0.246,-0.878 0.246,-2.622 0.246,14.653 0.246,2.215 0.246,-15.625 0.246,7.937 0.247,2.856 0.246,2.914 0.246,5.937 0.246,-7.949 0.246,-6.418 0.246,10.262 0.246,-2.258 0.246,-5.402 0.246,4.64 0.246,-4.07 0.246,5.859 0.247,-5.508 0.246,-1.656 0.246,0.121 0.246,-0.343 0.246,9.421 0.246,3.215 0.246,-2.808 0.246,7.472 0.246,-8.121 0.246,7.453 0.246,-1.425 0.247,1.648 0.246,-3.992 0.246,-5.785 0.246,3.707 0.246,3.691 0.246,9.692 0.246,3.847 0.246,-2.887 0.246,0.54 0.246,8.289 0.247,-8.329 0.246,0.664 0.246,-7.746 0.246,-3.031 0.25,-1.183 0.246,-1.844 0.246,0.433 0.246,6.168 0.246,9.563 0.246,-1.617 0.246,-5.977 0.246,-9.73 0.247,0.445 0.246,10.18 0.246,0.543 0.246,-5.778 0.246,-1.558 0.246,-8.434 0.246,0.996 0.246,0.383 0.246,-7.066 0.246,7.55 0.247,-7.015 0.246,-4.797 0.246,-0.07 0.246,-13.258 0.246,-0.817 0.246,5.719 0.246,-4.844 0.246,4.887 0.246,-1.207 0.246,0.758 0.246,-4.156 0.247,-14.426 0.246,-4.992 0.246,13.484 0.246,0.738 0.246,-0.281 0.246,-2.59 0.246,-1.234 0.246,12.012 0.246,-4.211 0.246,-2.184 0.246,1.422 0.247,-4.82 0.246,-12.278 0.246,-6.734 0.246,-6.695 0.246,6.171 0.246,-0.828 0.246,-0.961 0.246,3.598 0.246,-0.773 0.246,-2.461 0.246,2.207 0.247,10.965 0.246,6.074 0.246,-8.117 0.246,-5.879 0.246,-4.121 0.246,-4.18 0.246,-13.207 0.246,-3.641 0.246,-1.969 0.246,0.961 0.247,18.641 0.246,-4 0.246,6.383 0.246,8.59 0.246,-3.532 0.246,16.317 0.246,-3.985 0.246,1.133 0.246,-4.64 0.246,14.207 0.246,13.515 0.247,-0.992 0.246,-3.617 0.246,9.594 0.246,2.922 0.246,2.882 0.246,-0.988 0.246,1.516 0.246,2.488 0.246,-7.699 0.246,-4.285 0.247,-7.411 0.246,7.27 0.246,-2.992 0.246,-0.117 0.246,0.765 0.246,-1.418 0.246,-4.051 0.246,1.223 0.246,-4.512 0.25,-2.793 0.246,-8.64 0.246,-11.641 0.247,-3.156 0.246,-4.109 0.246,-2.118 0.246,1.36 0.246,-2.367 0.246,10.57 0.246,-18.121 0.246,-6.215 0.246,16.668 0.246,-0.363 0.246,-2.028 0.247,10.91 0.246,-5.007 0.246,-8.59 0.246,6.933 0.246,-6.847 0.246,1.781 0.246,8.594 0.246,9.394 0.246,-3.398 0.246,1.66 0.246,10.527 0.247,1.532 0.246,4.687 0.246,-0.648 0.246,-2.688 0.246,2.086 0.246,-5.363 0.246,-3.754 0.246,16.844 0.246,-0.032 0.246,-17.257 0.247,4.128 0.246,-2.308 0.246,9.867 0.246,3.988 0.246,-7.75 0.246,-5.59 0.246,-5.277 0.246,6.379 0.246,8.461 0.246,4.848 0.246,-9.543 0.247,-7.336 0.246,-7.938 0.246,-3.605 0.246,0.847 0.246,2.102 0.246,-5.805 0.246,4.422 0.246,0.738 0.246,20.895 0.246,9.312 0.247,7.012 0.246,-9.664 0.246,-2.285 0.246,7.867 0.246,1.781 0.246,-3.046 0.246,1.003 0.246,-4.105 0.246,2.941 0.246,-4.558 0.246,2.441 0.247,-0.187 0.246,7.871 0.246,-9.914 0.246,-3.063 0.246,10.797 0.246,0.434 0.246,11.672 0.246,-16.079 0.246,6.969 0.246,-7.699 0.246,0.613 0.247,-12.125 0.246,13.403 0.246,12.304 0.246,8.25 0.246,6.899 0.246,-2.473 0.246,2.297 0.246,-3.828 0.246,-3.145 0.246,-1.996 0.246,7.758 0.247,-1.195 0.246,-2.203 0.246,-5.016 0.25,2.766 0.246,-8.286 0.246,1.11 0.246,2.172 0.246,4.66 0.246,12.148 0.246,-13.668 0.246,-6.14 0.247,0.597 0.246,10.766 0.246,-6.758 0.246,-11.574 0.246,1.715 0.246,-2.516 0.246,10.211 0.246,10.258 0.246,4.371 0.246,-2.668 0.246,7.039 0.247,-3.086 0.246,-4.32 0.246,-12.125 0.246,-6.203 0.246,-3.883 0.246,-9.293 0.246,-11.684 0.246,0.696 0.246,-1.067 0.246,3.215 0.247,-5.906 0.246,-10.742 0.246,7.293 0.246,-6.344 0.246,6.23 0.246,-11.125 0.246,8.34 0.246,-5.687 0.246,-2.141 0.246,-7.976 0.246,-0.583 0.247,-4.347 0.246,-5.738 0.246,-2.622 0.246,-3.73 0.246,3.644 0.246,8.114 0.246,12.738 0.246,3.406 0.246,-5.418 0.246,4.637 0.246,-6.289 0.247,-2.828 0.246,1.844 0.246,2.324 0.246,-1.172 0.246,-0.684 0.246,3.727 0.246,4.144 0.246,-6.21 0.246,-0.415 0.246,-9.968 0.246,-7.407 0.247,-4.703 0.246,0.465 0.246,5.047 0.246,1.656 0.246,3.989 0.246,10.058 0.246,-6.211 0.246,-4.945 0.246,7.176 0.246,-2.567 0.247,13.785 0.246,8.227 0.246,10.469 0.246,-9.856 0.246,-5.828 0.246,-6.019 0.246,-0.559 0.246,-4.164 0.246,-7.699 0.246,-4.887 0.246,-0.101 0.247,-1.403 0.246,-1.191 0.246,-3.957 0.246,5.277 0.246,2.313 0.246,-2.325 0.246,4.914 0.246,-4.761 0.246,4.535 0.25,-3.055 0.246,-2.125 0.247,6.5 0.246,5.004 0.246,8.602 0.246,16.828 0.246,0.086 0.246,11.496 0.246,-7.531 0.246,2.281 0.246,-3.274 0.246,-11.875 0.246,2.387 0.247,5.254 0.246,7.332 0.246,9.27 0.246,-1.192 0.246,2.93 0.246,3.269 0.246,7.989 0.246,-1.52 0.246,3.453 0.246,-11 0.246,-6 0.247,7.766 0.246,-9.797 0.246,-7.84 0.246,-9.277 0.246,0.761 0.246,-4.851 0.246,3.457 0.246,-0.844 0.246,5.785 0.246,-2.691 0.246,-5.637 0.247,6.422 0.246,-1.707 0.246,2.977 0.246,0.16 0.246,12.699 0.246,2.984 0.246,-1.062 0.246,6.984 0.246,-5.879 0.246,-5.925 0.247,-10.907 0.246,2.899 0.246,6.262 0.246,3.714 0.246,13.993 0.246,-1.911 0.246,5.145 0.246,6.855 0.246,-11.355 0.246,-7.293 0.246,2.16 0.247,4.223 0.246,-1.813 0.246,-8.625 0.246,-11.191 0.246,-9.422 0.246,5.16 0.246,-5.445 0.246,16.59 0.246,1.722 0.246,-6.129 0.247,2.782 0.246,-2.293 0.246,-3.86 0.246,1.809 0.246,-1.379 0.246,-1.141 0.246,-1.73 0.246,4.476 0.246,9.692 0.246,7.64 0.246,-1.058 0.247,3.398 0.246,-2.039 0.246,9.328 0.246,-1.285 0.246,-2.59 0.246,-2.484 0.246,10 0.246,-9.273 0.246,-11.477 0.246,2.859 0.246,-4.691 0.247,-12.227 0.246,-6.515 0.246,-11.004 0.25,-3.496 0.246,13.262 0.246,-4.79 0.246,2.25 0.246,-0.269 0.246,2.23 0.246,-5.593 0.246,-1.672 0.246,-3.051 0.247,-1.754 0.246,-0.141 0.246,3.825 0.246,4.066 0.246,-7.336 0.246,-11.894 0.246,-10.813 0.246,3.852 0.246,9.336 0.246,-3.825 0.247,-1.503 0.246,2.304 0.246,0.86 0.246,10 0.246,4.757 0.246,3.586 0.246,7.367 0.246,-1.761 0.246,3.187 0.246,11.352 0.246,-0.082 0.247,-4.988 0.246,1.632 0.246,-2.222 0.246,-5.903 0.246,0.059 0.246,-5.516 0.246,-11.011 0.246,-5.446 0.246,4.996 0.246,-9.625 0.247,7.621 0.246,-0.902 0.246,-15.426 0.246,-12.961 0.246,-2.738 0.246,2.785 0.246,-6.425 0.246,3.437 0.246,9.344 0.246,-2.207 0.246,9.086 0.247,-0.18 0.246,4.559 0.246,-9.899 0.246,2.094 0.246,1.57 0.246,13.649 0.246,7.843 0.246,-4.605 0.246,-3.504 0.246,-8.277 0.246,8.191 0.247,-5.418 0.246,-6.336 0.246,-0.797 0.246,-9.539 0.246,-1.828 0.246,7.051 0.246,-0.848 0.246,6.504 0.246,9.117 0.246,4.817 0.246,-5.055 0.247,12.141 0.246,-4.801 0.246,10.82 0.246,-2.355 0.246,8.332 0.246,0.633 0.246,2.015 0.246,2.965 0.246,2.074 0.246,-7.797 0.247,-10.304 0.246,-3.891 0.246,-6.371 0.246,7.836 0.246,-1.008 0.246,-2.926 0.246,2.215 0.246,-0.48 0.246,-12.543 0.25,-8.512 0.246,5.473 0.246,0.363 0.247,4.812 0.246,-9.765 0.246,7.441 0.246,5.305 0.246,-5.168 0.246,-9.887 0.246,-6.789 0.246,0.735 0.246,-4.422 0.246,6.3 0.247,3.207 0.246,-8.48 0.246,-3.133 0.246,-1 0.246,-10.875 0.246,-0.531 0.246,8.312 0.246,-2.777 0.246,13.457 0.246,-1.68 0.246,11.176 0.247,-3.437 0.246,5.937 0.246,-1.535 0.246,-11.301 0.246,-9.176 0.246,-2.515 0.246,5.062 0.246,-7.582 0.246,6.719 0.246,-0.769 0.246,4.218 0.247,2.352 0.246,5.293 0.246,2.992 0.246,-1.305 0.246,-10.152 0.246,-5.105 0.246,-7.29 0.246,-9.804 0.246,2.25 0.246,-5.328 0.246,-18.133 0.247,5.863 0.246,0.27 0.246,3.004 0.246,-4.504 0.246,12.968 0.246,2.856 0.246,0.793 0.246,4.68 0.246,11.898 0.246,1.098 0.247,10.242 0.246,2.41 0.246,2.309 0.246,7.265 0.246,-7.629 0.246,6.649 0.246,-0.278 0.246,7.325 0.246,2.457 0.246,4.476 0.246,3.707 0.247,10.578 0.246,-1.25 0.246,-10.57 0.246,-8.242 0.246,-7.188 0.246,9.871 0.246,-1.898 0.246,1.059 0.246,-7.477 0.246,-0.992 0.247,-0.598 0.246,0.188 0.246,12.511 0.246,3.942 0.246,-0.731 0.246,10.309 0.246,-6.07 0.246,-2.504 0.246,-4.16 0.246,2.675 0.246,-8.144 0.247,-5.121 0.246,-5.164 0.246,-2.067 0.246,-2.242 0.25,3.629 0.246,-3.531 0.246,-2.949 0.246,1.433 0.246,2.586 0.246,9.652 0.246,-10.168 0.246,-4.265 0.247,-0.809 0.246,14.828 0.246,-11.187 0.246,-3.133 0.246,-0.117 0.246,-6.895 0.246,-0.66 0.246,8.91 0.246,-0.336 0.246,2.414 0.246,-0.046 0.247,-4.661 0.246,-5.246 0.246,14.157 0.246,-13.313 0.246,-3.086 0.246,-1.879 0.246,3.645 0.246,1.386 0.246,-4.925 0.246,0.336 0.247,8.593 0.246,2.899 0.246,-5.809 0.246,-3.289 0.246,6.258 0.246,13.215 0.246,2.918 0.246,-1.645 0.246,-1 0.246,-10.773 0.246,-5.035 0.247,3.425 0.246,-12.234 0.246,2.578 0.246,0.281 0.246,-4.082 0.246,-0.55 0.246,3.14 0.246,3.266 0.246,-6.274 0.246,-2.472 0.247,-8.629 0.246,-2.199 0.246,6.218 0.246,-0.703 0.246,0.836 0.246,-8.265 0.246,1.468 0.246,6.348 0.246,5.516 0.246,2.496 0.246,6.441 0.247,1.469 0.246,-0.156 0.246,6.023 0.246,-4.074 0.246,6.629 0.246,17.195 0.246,-4.199 0.246,-7.301 0.246,5.25 0.246,1.91 0.246,-6.816 0.247,-2.793 0.246,-2.11 0.246,-9.378 0.246,-11.54 0.246,-1.214 0.246,5.105 0.246,-1.93 0.246,4.2 0.246,-2.778 0.246,-4.34 0.246,-0.648 0.247,6.297 0.246,-4.344 0.246,-6.332 0.246,4.82 0.246,5.629 0.246,-2.597 0.246,-0.785 0.246,0.14 0.25,-9.293 0.246,-2.574 0.246,3.441 0.247,-5.879 0.246,-8.351 0.246,4.824 0.246,12.516 0.246,-5.094 0.246,-5.141 0.246,3.543 0.246,4.543 0.246,10.672 0.246,-4.605 0.246,3.297 0.247,-4.856 0.246,5.945 0.246,0.625 0.246,-7.621 0.246,4.055 0.246,-1.43 0.246,-3.64 0.246,-10.043 0.246,-0.985 0.246,-3.437 0.247,6.308 0.246,4.168 0.246,-1.316 0.246,4.168 0.246,7.91 0.246,1.641 0.246,-16.379 0.246,-2.406 0.246,5.539 0.246,-4.399 0.246,1.145 0.247,0.031 0.246,-2.121 0.246,-7.477 0.246,11.52 0.246,4.965 0.246,2.293 0.246,12.132 0.246,2.469 0.246,-8.304 0.246,7.25 0.246,2.582 0.247,-2.059 0.246,9.664 0.246,2.301 0.246,4.18 0.246,-1.555 0.246,0.73 0.246,-8.32 0.246,11.477 0.246,-4.094 0.246,5.668 0.246,-0.176 0.247,7.469 0.246,8.211 0.246,6.547 0.246,3.214 0.246,-4.082 0.246,-5.281 0.246,-2.527 0.246,7.301 0.246,-8.278 0.246,0.153 0.247,-1.797 0.246,-4.598 0.246,3.633 0.246,-7.125 0.246,1.805 0.246,3.812 0.246,-6.891 0.246,-7.57 0.246,-3.105 0.246,1.355 0.246,-6.203 0.247,2.711 0.246,0.527 0.246,6.426 0.246,-1.98 0.246,-6.942 0.246,-1.672 0.246,0.532 0.246,5.132 0.246,-23.515 0.246,0.949" /></g><g
         id="g122"><path
           id="path124"
           style="fill:none;stroke:#000000;stroke-width:0.75;stroke-linecap:butt;stroke-linejoin:miter;stroke-miterlimit:1.15470099;stroke-dasharray:none;stroke-opacity:1"
           d="m 44.559,193.125 v 3.75" /></g><g
         id="g126"><path
           id="path128"
           style="fill:none;stroke:#000000;stroke-width:0.75;stroke-linecap:butt;stroke-linejoin:miter;stroke-miterlimit:1.15470099;stroke-dasharray:none;stroke-opacity:1"
           d="m 106.09,193.125 v 3.75" /></g><g
         id="g130"><path
           id="path132"
           style="fill:none;stroke:#000000;stroke-width:0.75;stroke-linecap:butt;stroke-linejoin:miter;stroke-miterlimit:1.15470099;stroke-dasharray:none;stroke-opacity:1"
           d="m 167.625,193.125 v 3.75" /></g><g
         id="g134"><path
           id="path136"
           style="fill:none;stroke:#000000;stroke-width:0.75;stroke-linecap:butt;stroke-linejoin:miter;stroke-miterlimit:1.15470099;stroke-dasharray:none;stroke-opacity:1"
           d="m 229.16,193.125 v 3.75" /></g><g
         id="g138"><path
           id="path140"
           style="fill:none;stroke:#000000;stroke-width:0.75;stroke-linecap:butt;stroke-linejoin:miter;stroke-miterlimit:1.15470099;stroke-dasharray:none;stroke-opacity:1"
           d="m 290.691,193.125 v 3.75" /></g><g
         id="g142"><path
           id="path144"
           style="fill:none;stroke:#000000;stroke-width:0.75;stroke-linecap:butt;stroke-linejoin:miter;stroke-miterlimit:1.15470099;stroke-dasharray:none;stroke-opacity:1"
           d="m 31.875,167.316 h -3.75" /></g><g
         id="g146"><path
           id="path148"
           style="fill:none;stroke:#000000;stroke-width:0.75;stroke-linecap:butt;stroke-linejoin:miter;stroke-miterlimit:1.15470099;stroke-dasharray:none;stroke-opacity:1"
           d="m 31.875,89.863 h -3.75" /></g><g
         id="g150"><path
           id="path152"
           style="fill:none;stroke:#000000;stroke-width:0.75;stroke-linecap:butt;stroke-linejoin:miter;stroke-miterlimit:1.15470099;stroke-dasharray:none;stroke-opacity:1"
           d="m 31.875,12.414 h -3.75" /></g><g
         id="g154"><path
           id="path156"
           style="fill:none;stroke:#000000;stroke-width:0.75;stroke-linecap:butt;stroke-linejoin:miter;stroke-miterlimit:1.15470099;stroke-dasharray:none;stroke-opacity:1"
           d="m 31.875,192.75 h 271.5" /></g><g
         id="g158"><path
           id="path160"
           style="fill:none;stroke:#000000;stroke-width:0.75;stroke-linecap:butt;stroke-linejoin:miter;stroke-miterlimit:1.15470099;stroke-dasharray:none;stroke-opacity:1"
           d="M 32.25,193.125 V 11.625" /></g><g
         id="g162"><path
           id="path164"
           style="fill:none;stroke:#000000;stroke-width:0.75;stroke-linecap:butt;stroke-linejoin:miter;stroke-miterlimit:1.15470099;stroke-dasharray:none;stroke-opacity:1"
           d="m 31.875,12 h 271.5" /></g><g
         id="g166"><path
           id="path168"
           style="fill:none;stroke:#000000;stroke-width:0.75;stroke-linecap:butt;stroke-linejoin:miter;stroke-miterlimit:1.15470099;stroke-dasharray:none;stroke-opacity:1"
           d="M 303,193.125 V 11.625" /></g></g></g></svg>